<svg version="1.0" xmlns="http://www.w3.org/2000/svg"
 viewBox="0 0 1080.000000 1080.000000"
 preserveAspectRatio="xMidYMid meet">
<g transform="translate(0.000000,1080.000000) scale(0.100000,-0.100000)"
fill="#000000" stroke="none">
<path d="M5170 8079 c-131 -15 -281 -49 -420 -95 -762 -253 -1303 -927 -1391
-1735 -14 -131 -6 -423 16 -544 120 -672 534 -1224 1136 -1515 341 -164 730
-231 1118 -190 689 73 1308 511 1616 1145 152 312 215 615 202 975 -12 313
-71 550 -208 827 -310 628 -923 1056 -1621 1132 -111 13 -338 12 -448 0z
m-177 -1365 c83 -21 112 -38 178 -101 72 -68 118 -163 126 -260 8 -98 1 -103
-137 -103 -122 0 -133 5 -145 67 -16 84 -56 126 -141 143 -79 17 -131 5 -175
-39 -20 -20 -42 -54 -49 -76 -7 -23 -14 -133 -17 -255 -9 -342 14 -449 105
-487 47 -20 157 -13 200 12 36 22 68 74 77 130 4 22 12 48 16 57 13 25 62 35
154 31 44 -1 86 -3 93 -3 24 0 31 -45 20 -126 -18 -136 -107 -276 -209 -330
-15 -7 -60 -22 -100 -34 -176 -48 -411 -4 -498 95 -44 50 -79 124 -102 213
-28 111 -44 402 -29 557 29 316 97 437 278 501 83 29 258 33 355 8z m1140 1
c122 -32 207 -99 261 -205 39 -79 64 -197 47 -228 -17 -32 -74 -45 -165 -39
-91 6 -109 19 -119 84 -15 90 -98 140 -217 131 -52 -4 -65 -9 -95 -38 -73 -71
-64 -156 22 -207 42 -24 121 -56 238 -95 125 -41 201 -85 245 -140 52 -65 65
-97 79 -186 9 -60 8 -80 -8 -145 -38 -147 -99 -230 -204 -280 -133 -63 -362
-61 -490 4 -121 62 -200 192 -222 366 -6 44 -4 54 15 73 20 20 30 22 127 18
121 -4 135 -13 147 -92 10 -62 55 -122 103 -135 55 -16 149 -13 183 4 63 33
94 150 52 201 -23 29 -118 76 -217 109 -182 60 -332 164 -369 256 -29 73 -32
176 -6 260 28 94 65 162 107 200 41 35 119 76 170 88 63 15 253 12 316 -4z"/>
<path d="M1815 3411 c-137 -17 -185 -109 -185 -352 0 -266 56 -349 236 -349
63 0 89 5 124 23 65 32 103 91 108 167 l4 61 -63 -3 -64 -3 -14 -43 c-7 -24
-24 -50 -37 -59 -35 -22 -101 -20 -125 4 -28 28 -42 129 -35 258 7 136 20 158
89 163 59 4 85 -10 104 -56 19 -45 28 -52 75 -52 57 0 68 8 68 49 -1 86 -73
171 -162 191 -27 5 -54 9 -61 9 -7 -1 -34 -5 -62 -8z"/>
<path d="M5865 3411 c-74 -9 -115 -37 -148 -101 -24 -47 -28 -64 -25 -117 4
-56 8 -67 38 -99 38 -39 97 -72 177 -98 95 -31 124 -72 87 -124 -23 -34 -59
-44 -105 -32 -32 9 -43 18 -56 48 -29 69 -26 67 -89 67 l-59 0 1 -53 c2 -71
42 -137 103 -169 60 -31 192 -33 250 -3 78 39 120 134 101 225 -18 82 -58 115
-203 166 -112 38 -143 84 -92 134 18 19 35 25 70 25 35 0 52 -6 70 -25 14 -13
25 -32 25 -43 0 -29 21 -42 66 -42 63 0 74 7 74 49 -1 51 -31 112 -74 148 -32
26 -116 56 -149 52 -7 -1 -34 -5 -62 -8z"/>
<path d="M7317 3410 c-87 -11 -142 -61 -169 -154 -16 -55 -16 -338 0 -392 15
-51 48 -101 85 -128 25 -18 43 -21 137 -21 106 0 109 1 147 31 21 17 49 51 63
75 24 43 25 49 25 239 0 182 -2 198 -22 236 -32 60 -83 100 -143 113 -28 6
-54 10 -58 10 -4 -1 -33 -5 -65 -9z m125 -158 c24 -24 36 -147 28 -279 -5 -67
-10 -86 -29 -107 -45 -48 -136 -36 -160 22 -9 20 -11 77 -9 187 l3 157 29 25
c25 21 37 24 74 20 26 -3 53 -13 64 -25z"/>
<path d="M8095 3411 c-77 -10 -115 -37 -150 -106 l-30 -60 0 -185 0 -185 30
-60 c40 -81 86 -105 197 -105 81 0 135 15 171 48 34 30 67 108 67 157 l0 46
-61 -3 c-65 -3 -73 -9 -84 -60 -12 -61 -119 -84 -161 -35 -28 33 -39 122 -31
260 7 128 21 151 95 155 44 3 56 -1 77 -22 14 -14 25 -34 25 -45 0 -26 29 -41
77 -41 58 0 67 10 59 67 -16 123 -130 194 -281 174z"/>
<path d="M2374 3396 c-3 -9 33 -93 84 -193 l89 -178 -2 -141 c-2 -78 0 -147 4
-153 5 -8 29 -11 67 -9 l59 3 5 151 5 151 93 182 c51 100 90 186 87 192 -4 5
-33 9 -66 9 -68 0 -68 0 -137 -142 -20 -42 -39 -77 -42 -77 -3 -1 -30 47 -60
107 l-55 107 -63 3 c-48 2 -64 0 -68 -12z"/>
<path d="M3167 3403 c-4 -3 -7 -158 -7 -343 l0 -337 50 -6 c83 -10 79 -20 82
201 l3 197 56 -95 c184 -309 175 -297 224 -303 24 -4 51 -4 58 -1 19 7 34 659
16 680 -15 18 -103 19 -118 1 -6 -9 -12 -84 -13 -203 l-3 -189 -77 130 c-42
72 -98 163 -123 203 l-46 72 -48 0 c-26 0 -51 -3 -54 -7z"/>
<path d="M3980 3385 c-12 -33 -13 -634 -1 -654 7 -11 40 -13 156 -12 81 1 159
7 173 12 37 14 80 56 105 104 20 37 22 54 22 230 0 175 -2 193 -21 230 -49 90
-92 108 -276 113 l-148 4 -10 -27z m277 -120 c35 -11 48 -95 44 -288 -1 -62
-4 -72 -30 -98 -25 -25 -37 -29 -84 -29 -88 0 -87 -1 -87 109 0 53 3 146 7
208 l6 112 66 -5 c36 -3 71 -7 78 -9z"/>
<path d="M4762 3398 c-9 -9 -12 -99 -12 -344 l0 -331 52 -5 c29 -3 58 -3 65
-1 10 4 14 58 15 222 1 119 3 268 3 331 1 63 -3 121 -8 128 -12 15 -99 16
-115 0z"/>
<path d="M6434 3396 c-3 -7 -4 -38 -2 -67 l3 -54 73 -3 72 -3 0 -274 0 -275
63 0 64 0 6 182 c4 99 7 223 7 275 l0 93 65 0 c51 0 66 3 72 18 11 21 10 93 0
110 -12 19 -416 17 -423 -2z"/>
<path d="M8702 3398 c-9 -9 -12 -99 -12 -344 l0 -331 52 -5 c29 -3 58 -3 65
-1 10 4 13 43 13 150 0 85 4 143 9 141 5 -1 54 -66 108 -143 l98 -140 78 -3
c63 -2 77 0 77 12 0 8 -35 61 -78 118 -99 129 -142 193 -142 208 0 13 24 48
153 222 43 59 76 112 72 118 -3 5 -37 10 -74 10 -80 0 -72 8 -196 -173 -49
-70 -91 -130 -95 -132 -3 -2 -5 58 -4 133 1 75 -3 145 -8 155 -10 20 -97 24
-116 5z"/>
</g>
</svg>
